<svg xmlns="http://www.w3.org/2000/svg" xmlns:xlink="http://www.w3.org/1999/xlink" width="922" zoomAndPan="magnify" viewBox="0 0 691.5 691.499983" height="922" preserveAspectRatio="xMidYMid meet" version="1.2"><defs><clipPath id="4238c26f3d"><path d="M 0 0 L 691 0 L 691 691 L 0 691 Z M 0 0 "/></clipPath><clipPath id="d388ee58f5"><path d="M 345.5 0 C 154.6875 0 0 154.6875 0 345.5 C 0 536.316406 154.6875 691 345.5 691 C 536.316406 691 691 536.316406 691 345.5 C 691 154.6875 536.316406 0 345.5 0 Z M 345.5 0 "/></clipPath></defs><g id="9f9ff0704e"><g clip-rule="nonzero" clip-path="url(#4238c26f3d)"><g clip-rule="nonzero" clip-path="url(#d388ee58f5)"><path style=" stroke:none;fill-rule:nonzero;fill:#ffffff;fill-opacity:1;" d="M 0 0 L 691 0 L 691 691 L 0 691 Z M 0 0 "/></g></g><path style=" stroke:none;fill-rule:nonzero;fill:#1e40af;fill-opacity:1;" d="M 215.34375 610.449219 C 209.269531 610.449219 203.609375 608.929688 198.363281 605.890625 C 193.121094 602.855469 189.117188 598.574219 186.355469 593.054688 L 121.746094 477.917969 L 169.789062 477.917969 L 202.921875 544.183594 L 279.125 544.183594 L 279.125 511.050781 L 222.800781 511.050781 L 189.667969 444.785156 L 103.523438 444.785156 L 56.308594 361.957031 C 55.207031 359.195312 54.238281 356.433594 53.410156 353.671875 C 52.582031 350.910156 52.167969 348.152344 52.167969 345.390625 C 52.167969 343.179688 53.550781 337.660156 56.308594 328.824219 L 103.523438 245.992188 L 189.667969 245.992188 L 222.800781 179.726562 L 279.125 179.726562 L 279.125 146.597656 L 202.921875 146.597656 L 169.789062 212.859375 L 121.746094 212.859375 L 186.355469 97.726562 C 189.117188 92.203125 193.121094 87.925781 198.363281 84.886719 C 203.609375 81.851562 209.269531 80.332031 215.34375 80.332031 L 295.691406 80.332031 C 305.078125 80.332031 312.949219 83.507812 319.296875 89.855469 C 325.648438 96.207031 328.824219 104.074219 328.824219 113.464844 L 328.824219 245.992188 L 279.125 245.992188 L 245.992188 279.125 L 328.824219 279.125 L 328.824219 378.523438 L 255.933594 378.523438 L 222.800781 312.257812 L 146.597656 312.257812 L 113.464844 345.390625 L 202.921875 345.390625 L 236.054688 411.652344 L 328.824219 411.652344 L 328.824219 577.316406 C 328.824219 586.703125 325.648438 594.570312 319.296875 600.921875 C 312.949219 607.273438 305.078125 610.449219 295.691406 610.449219 Z M 411.652344 610.449219 C 393.429688 610.449219 377.832031 603.960938 364.855469 590.984375 C 351.878906 578.007812 345.390625 562.40625 345.390625 544.183594 C 345.390625 531.484375 348.425781 520.300781 354.5 510.636719 C 360.574219 500.972656 368.582031 493.105469 378.523438 487.03125 L 378.523438 203.75 C 368.582031 197.675781 360.574219 189.804688 354.5 180.140625 C 348.425781 170.480469 345.390625 159.296875 345.390625 146.597656 C 345.390625 128.375 351.878906 112.773438 364.855469 99.796875 C 377.832031 86.820312 393.429688 80.332031 411.652344 80.332031 C 429.878906 80.332031 445.476562 86.820312 458.453125 99.796875 C 471.429688 112.773438 477.917969 128.375 477.917969 146.597656 C 477.917969 159.296875 474.882812 170.480469 468.808594 180.140625 C 462.734375 189.804688 454.726562 197.675781 444.785156 203.75 L 444.785156 287.40625 L 511.050781 247.648438 C 511.050781 228.875 517.539062 212.859375 530.515625 199.609375 C 543.492188 186.355469 559.09375 179.726562 577.316406 179.726562 C 595.539062 179.726562 611.136719 186.214844 624.113281 199.191406 C 637.09375 212.171875 643.582031 227.769531 643.582031 245.992188 C 643.582031 264.214844 637.09375 279.816406 624.113281 292.792969 C 611.136719 305.769531 595.539062 312.257812 577.316406 312.257812 C 571.242188 312.257812 565.582031 311.566406 560.335938 310.1875 C 555.089844 308.804688 549.980469 306.734375 545.011719 303.972656 L 469.636719 349.53125 L 553.292969 415.796875 C 557.160156 414.140625 561.027344 413.035156 564.890625 412.484375 C 568.757812 411.929688 572.898438 411.652344 577.316406 411.652344 C 595.539062 411.652344 611.136719 418.144531 624.113281 431.121094 C 637.09375 444.097656 643.582031 459.695312 643.582031 477.917969 C 643.582031 496.140625 637.09375 511.742188 624.113281 524.71875 C 611.136719 537.695312 595.539062 544.183594 577.316406 544.183594 C 556.882812 544.183594 540.179688 536.453125 527.203125 520.992188 C 514.226562 505.527344 509.117188 487.859375 511.878906 467.980469 L 444.785156 414.140625 L 444.785156 487.859375 C 454.726562 493.933594 462.59375 501.800781 468.394531 511.464844 C 474.191406 521.128906 477.089844 532.035156 477.089844 544.183594 C 477.089844 562.40625 470.738281 578.007812 458.039062 590.984375 C 445.339844 603.960938 429.878906 610.449219 411.652344 610.449219 Z M 411.652344 610.449219 "/></g></svg>